<?xml version="1.0" standalone="no"?>
<!DOCTYPE svg PUBLIC "-//W3C//DTD SVG 20010904//EN"
 "http://www.w3.org/TR/2001/REC-SVG-20010904/DTD/svg10.dtd">
<svg version="1.0" xmlns="http://www.w3.org/2000/svg"
 width="267.000000pt" height="281.000000pt" viewBox="0 0 267.000000 281.000000"
 preserveAspectRatio="xMidYMid meet">
<metadata>
Created by potrace 1.15, written by Peter Selinger 2001-2017
</metadata>
<g transform="translate(0.000000,281.000000) scale(0.100000,-0.100000)"
fill="#000000" stroke="none">
<path d="M2422 1960 c-23 -10 -119 -51 -214 -91 -95 -39 -222 -93 -283 -119
-60 -26 -171 -73 -245 -105 -159 -67 -530 -249 -613 -299 l-58 -35 -32 19
c-37 21 -80 39 -277 114 -80 30 -192 75 -250 99 -102 43 -108 44 -187 39 -46
-2 -83 -7 -83 -10 0 -3 46 -104 101 -226 56 -122 120 -261 142 -311 104 -229
253 -501 353 -642 46 -64 134 -135 209 -168 22 -10 112 -53 201 -96 88 -44
165 -79 170 -79 5 0 36 -11 69 -25 33 -13 70 -25 83 -25 41 0 259 81 416 154
43 21 153 70 245 111 91 40 204 91 251 113 47 22 102 46 123 53 21 7 43 19 48
25 29 35 39 231 26 489 -5 88 -10 302 -12 475 -2 173 -6 333 -9 355 -3 22 -7
75 -10 118 -2 43 -6 80 -8 82 -2 2 -23 -1 -47 -6 -28 -6 -47 -6 -55 0 -8 7
-26 3 -54 -9z m-149 -292 c4 -84 16 -250 26 -368 11 -118 27 -318 36 -445 9
-126 20 -264 26 -305 5 -41 11 -83 12 -93 2 -15 -20 -29 -97 -63 -54 -25 -99
-44 -101 -42 -1 2 -10 59 -19 128 -40 292 -140 868 -179 1029 -25 103 -38 176
-32 178 6 2 78 32 160 67 83 35 153 64 156 65 3 1 9 -68 12 -151z m-683 -173
c0 -38 35 -187 95 -404 29 -108 68 -252 85 -321 41 -161 95 -354 126 -454 13
-43 23 -80 22 -80 -2 -1 -44 -20 -94 -43 l-91 -40 -37 121 c-20 66 -75 238
-121 381 -46 143 -104 328 -130 410 -26 83 -65 193 -87 245 -22 52 -36 96 -31
98 4 2 58 27 118 57 128 62 145 65 145 30z m-1030 -63 l75 -28 33 -114 c18
-63 93 -297 166 -520 73 -223 136 -415 140 -427 l7 -23 -53 25 c-41 19 -56 32
-65 57 -6 18 -30 87 -53 153 -51 145 -291 765 -331 853 -24 53 -25 62 -11 58
9 -4 51 -19 92 -34z m393 -147 c33 -6 35 -9 41 -57 10 -72 56 -204 125 -356
33 -72 103 -237 155 -364 51 -128 112 -274 134 -324 l39 -91 -96 44 c-53 25
-97 46 -99 48 -2 2 -189 603 -249 798 -8 27 -36 106 -64 178 -27 71 -49 132
-49 135 0 3 6 4 14 1 8 -3 30 -9 49 -12z"/>
</g>
</svg>
